<svg width="25" height="25" viewBox="0 0 25 25" fill="none" xmlns="http://www.w3.org/2000/svg">
<path d="M11.2493 3.8905C9.79296 3.8905 8.36928 4.32237 7.15835 5.13149C5.94741 5.94061 5.0036 7.09065 4.44627 8.43617C3.88893 9.78169 3.74311 11.2623 4.02723 12.6907C4.31136 14.1191 5.01268 15.4311 6.04249 16.4609C7.07231 17.4908 8.38438 18.1921 9.81277 18.4762C11.2412 18.7603 12.7217 18.6145 14.0673 18.0572C15.4128 17.4998 16.5628 16.556 17.3719 15.3451C18.1811 14.1342 18.6129 12.7105 18.6129 11.2541C18.6128 9.30119 17.837 7.4283 16.456 6.04739C15.0751 4.66647 13.2022 3.89063 11.2493 3.8905V3.8905Z" stroke="#858585" stroke-width="1.5" stroke-miterlimit="10"/>
<path d="M16.7432 16.7479L21.8858 21.8905" stroke="#858585" stroke-width="1.5" stroke-miterlimit="10" stroke-linecap="round"/>
</svg>
